<svg width="65" height="65" viewBox="0 0 65 65" fill="none" xmlns="http://www.w3.org/2000/svg">
<g clip-path="url(#clip0_4001_2646)">
<rect x="8" y="25" width="51.5" height="40" rx="4" fill="#D80B42"/>
<mask id="path-2-outside-1_4001_2646" maskUnits="userSpaceOnUse" x="37.1426" y="26.7148" width="33" height="43" fill="black">
<rect fill="white" x="37.1426" y="26.7148" width="33" height="43"/>
<path d="M61.4248 49.6289C63.6339 49.629 65.4248 51.4198 65.4248 53.6289V60.9375C65.4246 63.1464 63.6337 64.9374 61.4248 64.9375H45.1426C42.9336 64.9375 41.1428 63.1465 41.1426 60.9375V53.6289C41.1426 51.4198 42.9334 49.6289 45.1426 49.6289H61.4248ZM53.6943 30.7148C58.0363 30.715 61.5557 34.2352 61.5557 38.5771C61.5555 42.919 58.0362 46.4383 53.6943 46.4385C49.3523 46.4385 45.8322 42.9191 45.832 38.5771C45.832 34.2351 49.3523 30.7148 53.6943 30.7148Z"/>
</mask>
<path d="M61.4248 49.6289C63.6339 49.629 65.4248 51.4198 65.4248 53.6289V60.9375C65.4246 63.1464 63.6337 64.9374 61.4248 64.9375H45.1426C42.9336 64.9375 41.1428 63.1465 41.1426 60.9375V53.6289C41.1426 51.4198 42.9334 49.6289 45.1426 49.6289H61.4248ZM53.6943 30.7148C58.0363 30.715 61.5557 34.2352 61.5557 38.5771C61.5555 42.919 58.0362 46.4383 53.6943 46.4385C49.3523 46.4385 45.8322 42.9191 45.832 38.5771C45.832 34.2351 49.3523 30.7148 53.6943 30.7148Z" fill="#00143F"/>
<path d="M61.4248 49.6289L61.425 45.6289H61.4248V49.6289ZM65.4248 60.9375L69.4248 60.9378V60.9375H65.4248ZM61.4248 64.9375L61.4248 68.9375L61.425 68.9375L61.4248 64.9375ZM41.1426 60.9375L37.1426 60.9375L37.1426 60.9378L41.1426 60.9375ZM53.6943 30.7148L53.6945 26.7148H53.6943V30.7148ZM61.5557 38.5771L65.5557 38.5773V38.5771H61.5557ZM53.6943 46.4385L53.6943 50.4385L53.6945 50.4385L53.6943 46.4385ZM45.832 38.5771L41.832 38.5771L41.832 38.5773L45.832 38.5771ZM61.4248 49.6289L61.4246 53.6289L61.4248 53.6289H65.4248H69.4248C69.4248 49.2105 65.8429 45.6291 61.425 45.6289L61.4248 49.6289ZM65.4248 53.6289H61.4248V60.9375H65.4248H69.4248V53.6289H65.4248ZM65.4248 60.9375L61.4248 60.9372L61.4246 60.9375L61.4248 64.9375L61.425 68.9375C65.8431 68.9373 69.4244 65.3555 69.4248 60.9378L65.4248 60.9375ZM61.4248 64.9375V60.9375H45.1426V64.9375V68.9375H61.4248V64.9375ZM45.1426 64.9375V60.9375L45.1426 60.9372L41.1426 60.9375L37.1426 60.9378C37.143 65.3554 40.7241 68.9375 45.1426 68.9375V64.9375ZM41.1426 60.9375H45.1426V53.6289H41.1426H37.1426V60.9375H41.1426ZM41.1426 53.6289H45.1426V49.6289V45.6289C40.7243 45.6289 37.1426 49.2106 37.1426 53.6289H41.1426ZM45.1426 49.6289V53.6289H61.4248V49.6289V45.6289H45.1426V49.6289ZM53.6943 30.7148L53.6942 34.7148C55.8266 34.7149 57.5557 36.4438 57.5557 38.5771H61.5557H65.5557C65.5557 32.0265 60.246 26.7151 53.6945 26.7148L53.6943 30.7148ZM61.5557 38.5771L57.5557 38.577C57.5556 40.7098 55.827 42.4384 53.6942 42.4385L53.6943 46.4385L53.6945 50.4385C60.2454 50.4383 65.5554 45.1282 65.5557 38.5773L61.5557 38.5771ZM53.6943 46.4385V42.4385C51.561 42.4385 49.8321 40.7094 49.832 38.577L45.832 38.5771L41.832 38.5773C41.8323 45.1288 47.1437 50.4385 53.6943 50.4385V46.4385ZM45.832 38.5771H49.832C49.832 36.4442 51.5614 34.7148 53.6943 34.7148V30.7148V26.7148C47.1431 26.7148 41.832 32.0259 41.832 38.5771H45.832Z" fill="white" mask="url(#path-2-outside-1_4001_2646)"/>
<rect x="14.8516" y="32.7617" width="9.15454" height="7.32363" rx="2" fill="white"/>
<rect x="26.2773" y="32.7617" width="9.15454" height="7.32363" rx="2" fill="white"/>
<rect x="14.8516" y="42.2812" width="9.15454" height="7.32363" rx="2" fill="white"/>
</g>
<defs>
<clipPath id="clip0_4001_2646">
<rect width="65" height="65" fill="white"/>
</clipPath>
</defs>
</svg>
