<svg width="120" height="24" viewBox="0 0 120 24" fill="none" xmlns="http://www.w3.org/2000/svg">
<path d="M11.2445 4.174C11.476 3.50808 11.5917 3.17513 11.7629 3.08285C11.911 3.00298 12.0894 3.00298 12.2375 3.08285C12.4086 3.17513 12.5244 3.50808 12.7558 4.174L14.2861 8.57639C14.352 8.76592 14.3849 8.86068 14.4443 8.93125C14.4967 8.99359 14.5636 9.04218 14.6391 9.07278C14.7245 9.10743 14.8248 9.10947 15.0255 9.11356L19.6853 9.20852C20.3901 9.22288 20.7425 9.23007 20.8832 9.36432C21.0049 9.48051 21.06 9.65014 21.0298 9.81569C20.995 10.007 20.7141 10.2199 20.1523 10.6459L16.4382 13.4616C16.2783 13.5829 16.1984 13.6435 16.1496 13.7217C16.1065 13.7909 16.081 13.8695 16.0752 13.9507C16.0687 14.0427 16.0977 14.1387 16.1558 14.3308L17.5055 18.7919C17.7096 19.4667 17.8117 19.8041 17.7275 19.9793C17.6546 20.131 17.5103 20.2358 17.3435 20.2583C17.1508 20.2842 16.8615 20.0829 16.2828 19.6802L12.4571 17.0181C12.2924 16.9035 12.2101 16.8462 12.1206 16.8239C12.0415 16.8043 11.9588 16.8043 11.8798 16.8239C11.7903 16.8462 11.7079 16.9035 11.5432 17.0181L7.71756 19.6802C7.13888 20.0829 6.84954 20.2842 6.65684 20.2583C6.49007 20.2358 6.34577 20.131 6.27288 19.9793C6.18867 19.8041 6.29074 19.4667 6.49489 18.7919L7.84454 14.3308C7.90264 14.1387 7.93169 14.0427 7.92515 13.9507C7.91938 13.8695 7.89383 13.7909 7.85075 13.7217C7.80197 13.6435 7.72202 13.5829 7.56213 13.4616L3.84809 10.6459C3.28629 10.2199 3.0054 10.007 2.97052 9.81569C2.94034 9.65014 2.99545 9.48051 3.11718 9.36432C3.25783 9.23007 3.61025 9.22289 4.31511 9.20852L8.97491 9.11356C9.17552 9.10947 9.27582 9.10743 9.36128 9.07278C9.43677 9.04218 9.50365 8.99359 9.55608 8.93125C9.61544 8.86068 9.64838 8.76592 9.71426 8.57639L11.2445 4.174Z" fill="#000512"/>
<path d="M35.2445 4.174C35.476 3.50808 35.5917 3.17513 35.7629 3.08285C35.911 3.00298 36.0894 3.00298 36.2375 3.08285C36.4086 3.17513 36.5244 3.50808 36.7558 4.174L38.2861 8.57639C38.352 8.76592 38.3849 8.86068 38.4443 8.93125C38.4967 8.99359 38.5636 9.04218 38.6391 9.07278C38.7245 9.10743 38.8248 9.10947 39.0255 9.11356L43.6853 9.20852C44.3901 9.22288 44.7425 9.23007 44.8832 9.36432C45.0049 9.48051 45.06 9.65014 45.0298 9.81569C44.995 10.007 44.7141 10.2199 44.1523 10.6459L40.4382 13.4616C40.2783 13.5829 40.1984 13.6435 40.1496 13.7217C40.1065 13.7909 40.081 13.8695 40.0752 13.9507C40.0687 14.0427 40.0977 14.1387 40.1558 14.3308L41.5055 18.7919C41.7096 19.4667 41.8117 19.8041 41.7275 19.9793C41.6546 20.131 41.5103 20.2358 41.3435 20.2583C41.1508 20.2842 40.8615 20.0829 40.2828 19.6802L36.4571 17.0181C36.2924 16.9035 36.2101 16.8462 36.1206 16.8239C36.0415 16.8043 35.9588 16.8043 35.8798 16.8239C35.7903 16.8462 35.7079 16.9035 35.5432 17.0181L31.7176 19.6802C31.1389 20.0829 30.8495 20.2842 30.6568 20.2583C30.4901 20.2358 30.3458 20.131 30.2729 19.9793C30.1887 19.8041 30.2907 19.4667 30.4949 18.7919L31.8445 14.3308C31.9026 14.1387 31.9317 14.0427 31.9252 13.9507C31.9194 13.8695 31.8938 13.7909 31.8507 13.7217C31.802 13.6435 31.722 13.5829 31.5621 13.4616L27.8481 10.6459C27.2863 10.2199 27.0054 10.007 26.9705 9.81569C26.9403 9.65014 26.9955 9.48051 27.1172 9.36432C27.2578 9.23007 27.6103 9.22289 28.3151 9.20852L32.9749 9.11356C33.1755 9.10947 33.2758 9.10743 33.3613 9.07278C33.4368 9.04218 33.5036 8.99359 33.5561 8.93125C33.6154 8.86068 33.6484 8.76592 33.7143 8.57639L35.2445 4.174Z" fill="#000512"/>
<path d="M59.2445 4.174C59.476 3.50808 59.5917 3.17513 59.7629 3.08285C59.911 3.00298 60.0894 3.00298 60.2375 3.08285C60.4086 3.17513 60.5244 3.50808 60.7558 4.174L62.2861 8.57639C62.352 8.76592 62.3849 8.86068 62.4443 8.93125C62.4967 8.99359 62.5636 9.04218 62.6391 9.07278C62.7245 9.10743 62.8248 9.10947 63.0255 9.11356L67.6853 9.20852C68.3901 9.22288 68.7425 9.23007 68.8832 9.36432C69.0049 9.48051 69.06 9.65014 69.0298 9.81569C68.995 10.007 68.7141 10.2199 68.1523 10.6459L64.4382 13.4616C64.2783 13.5829 64.1984 13.6435 64.1496 13.7217C64.1065 13.7909 64.081 13.8695 64.0752 13.9507C64.0687 14.0427 64.0977 14.1387 64.1558 14.3308L65.5055 18.7919C65.7096 19.4667 65.8117 19.8041 65.7275 19.9793C65.6546 20.131 65.5103 20.2358 65.3435 20.2583C65.1508 20.2842 64.8615 20.0829 64.2828 19.6802L60.4571 17.0181C60.2924 16.9035 60.2101 16.8462 60.1206 16.8239C60.0415 16.8043 59.9588 16.8043 59.8798 16.8239C59.7903 16.8462 59.7079 16.9035 59.5432 17.0181L55.7176 19.6802C55.1389 20.0829 54.8495 20.2842 54.6568 20.2583C54.4901 20.2358 54.3458 20.131 54.2729 19.9793C54.1887 19.8041 54.2907 19.4667 54.4949 18.7919L55.8445 14.3308C55.9026 14.1387 55.9317 14.0427 55.9252 13.9507C55.9194 13.8695 55.8938 13.7909 55.8507 13.7217C55.802 13.6435 55.722 13.5829 55.5621 13.4616L51.8481 10.6459C51.2863 10.2199 51.0054 10.007 50.9705 9.81569C50.9403 9.65014 50.9955 9.48051 51.1172 9.36432C51.2578 9.23007 51.6103 9.22289 52.3151 9.20852L56.9749 9.11356C57.1755 9.10947 57.2758 9.10743 57.3613 9.07278C57.4368 9.04218 57.5036 8.99359 57.5561 8.93125C57.6154 8.86068 57.6484 8.76592 57.7143 8.57639L59.2445 4.174Z" fill="#000512"/>
<path d="M83.2445 4.174C83.476 3.50808 83.5917 3.17513 83.7629 3.08285C83.911 3.00298 84.0894 3.00298 84.2375 3.08285C84.4086 3.17513 84.5244 3.50808 84.7558 4.174L86.2861 8.57639C86.352 8.76592 86.3849 8.86068 86.4443 8.93125C86.4967 8.99359 86.5636 9.04218 86.6391 9.07278C86.7245 9.10743 86.8248 9.10947 87.0255 9.11356L91.6853 9.20852C92.3901 9.22288 92.7425 9.23007 92.8832 9.36432C93.0049 9.48051 93.06 9.65014 93.0298 9.81569C92.995 10.007 92.7141 10.2199 92.1523 10.6459L88.4382 13.4616C88.2783 13.5829 88.1984 13.6435 88.1496 13.7217C88.1065 13.7909 88.081 13.8695 88.0752 13.9507C88.0687 14.0427 88.0977 14.1387 88.1558 14.3308L89.5055 18.7919C89.7096 19.4667 89.8117 19.8041 89.7275 19.9793C89.6546 20.131 89.5103 20.2358 89.3435 20.2583C89.1508 20.2842 88.8615 20.0829 88.2828 19.6802L84.4571 17.0181C84.2924 16.9035 84.2101 16.8462 84.1206 16.8239C84.0415 16.8043 83.9588 16.8043 83.8798 16.8239C83.7903 16.8462 83.7079 16.9035 83.5432 17.0181L79.7176 19.6802C79.1389 20.0829 78.8495 20.2842 78.6568 20.2583C78.4901 20.2358 78.3458 20.131 78.2729 19.9793C78.1887 19.8041 78.2907 19.4667 78.4949 18.7919L79.8445 14.3308C79.9026 14.1387 79.9317 14.0427 79.9252 13.9507C79.9194 13.8695 79.8938 13.7909 79.8507 13.7217C79.802 13.6435 79.722 13.5829 79.5621 13.4616L75.8481 10.6459C75.2863 10.2199 75.0054 10.007 74.9705 9.81569C74.9403 9.65014 74.9955 9.48051 75.1172 9.36432C75.2578 9.23007 75.6103 9.22289 76.3151 9.20852L80.9749 9.11356C81.1755 9.10947 81.2758 9.10743 81.3613 9.07278C81.4368 9.04218 81.5036 8.99359 81.5561 8.93125C81.6154 8.86068 81.6484 8.76592 81.7143 8.57639L83.2445 4.174Z" fill="#000512"/>
<path d="M107.245 4.174C107.476 3.50808 107.592 3.17513 107.763 3.08285C107.911 3.00298 108.089 3.00298 108.237 3.08285C108.409 3.17513 108.524 3.50808 108.756 4.174L110.286 8.57639C110.352 8.76592 110.385 8.86068 110.444 8.93125C110.497 8.99359 110.564 9.04218 110.639 9.07278C110.725 9.10743 110.825 9.10947 111.025 9.11356L115.685 9.20852C116.39 9.22288 116.743 9.23007 116.883 9.36432C117.005 9.48051 117.06 9.65014 117.03 9.81569C116.995 10.007 116.714 10.2199 116.152 10.6459L112.438 13.4616C112.278 13.5829 112.198 13.6435 112.15 13.7217C112.107 13.7909 112.081 13.8695 112.075 13.9507C112.069 14.0427 112.098 14.1387 112.156 14.3308L113.505 18.7919C113.71 19.4667 113.812 19.8041 113.727 19.9793C113.655 20.131 113.51 20.2358 113.344 20.2583C113.151 20.2842 112.861 20.0829 112.283 19.6802L108.457 17.0181C108.292 16.9035 108.21 16.8462 108.121 16.8239C108.042 16.8043 107.959 16.8043 107.88 16.8239C107.79 16.8462 107.708 16.9035 107.543 17.0181L103.718 19.6802C103.139 20.0829 102.85 20.2842 102.657 20.2583C102.49 20.2358 102.346 20.131 102.273 19.9793C102.189 19.8041 102.291 19.4667 102.495 18.7919L103.845 14.3308C103.903 14.1387 103.932 14.0427 103.925 13.9507C103.919 13.8695 103.894 13.7909 103.851 13.7217C103.802 13.6435 103.722 13.5829 103.562 13.4616L99.8481 10.6459C99.2863 10.2199 99.0054 10.007 98.9705 9.81569C98.9403 9.65014 98.9955 9.48051 99.1172 9.36432C99.2578 9.23007 99.6103 9.22289 100.315 9.20852L104.975 9.11356C105.176 9.10947 105.276 9.10743 105.361 9.07278C105.437 9.04218 105.504 8.99359 105.556 8.93125C105.615 8.86068 105.648 8.76592 105.714 8.57639L107.245 4.174Z" fill="#000512"/>
</svg>
