<svg width="30" height="30" viewBox="0 0 30 30" fill="none" xmlns="http://www.w3.org/2000/svg">
<circle cx="15.0001" cy="9.37706" r="9.3751" fill="#D80B42"/>
<circle cx="15.0001" cy="9.37706" r="9.3751" fill="white" fill-opacity="0.15"/>
<path d="M29.7499 20.8655C29.9148 21.2421 30 21.6488 30 22.0599V24.3779C30 27.4845 27.4816 30.0029 24.3749 30.0029H5.62506C2.51842 30.0029 0 27.4845 0 24.3779V22.0596C0 21.6487 0.0850884 21.2422 0.249907 20.8657C1.29035 18.4894 5.07784 18.3492 7.15657 19.9012C9.34465 21.5347 12.0593 22.5019 15 22.502C17.9405 22.502 20.6548 21.5348 22.8425 19.9013C24.9215 18.3491 28.709 18.4889 29.7499 20.8655Z" fill="#D80B42"/>
<path d="M29.7499 20.8655C29.9148 21.2421 30 21.6488 30 22.0599V24.3779C30 27.4845 27.4816 30.0029 24.3749 30.0029H5.62506C2.51842 30.0029 0 27.4845 0 24.3779V22.0596C0 21.6487 0.0850884 21.2422 0.249907 20.8657C1.29035 18.4894 5.07784 18.3492 7.15657 19.9012C9.34465 21.5347 12.0593 22.5019 15 22.502C17.9405 22.502 20.6548 21.5348 22.8425 19.9013C24.9215 18.3491 28.709 18.4889 29.7499 20.8655Z" fill="white" fill-opacity="0.15"/>
</svg>
