<svg width="50" height="26" viewBox="0 0 50 26" fill="none" xmlns="http://www.w3.org/2000/svg">
<path d="M15.9523 8.95032C16.6918 9.46335 17.5391 9.80039 18.4288 9.93604L32.5752 12.0929C34.9799 12.4596 36.9454 14.2041 37.5946 16.5484L39.7993 24.5103C39.9371 25.0079 39.5628 25.5 39.0464 25.5H34.1947C33.8692 25.5 33.6159 25.2244 33.6159 24.8988C33.6158 20.044 29.6801 16.1082 24.8253 16.1082C19.9707 16.1085 16.0348 20.0442 16.0347 24.8988C16.0347 25.2244 15.7814 25.5 15.4558 25.5H4.6875C2.09867 25.5 0 23.4013 0 20.8125V5.1875C7.94012e-05 2.98724 1.51631 1.14229 3.56079 0.637848C3.76043 0.58859 3.96972 0.637449 4.13867 0.754658L15.9523 8.95032Z" fill="#D80B42"/>
<path d="M24.8253 19.2225C27.9604 19.2225 30.5022 21.7637 30.5023 24.8988C30.5023 25.2412 30.2111 25.5 29.8688 25.5H19.7842C19.4418 25.5 19.149 25.2412 19.149 24.8988C19.1491 21.7639 21.6904 19.2228 24.8253 19.2225Z" fill="#D80B42"/>
<path d="M45.3125 0.5C47.9013 0.5 50 2.59867 50 5.1875V20.8125C50 23.4013 47.9013 25.5 45.3125 25.5H43.6774C43.457 25.5 43.2636 25.353 43.2045 25.1407L40.5952 15.7176C39.6186 12.1909 36.6621 9.56601 33.0444 9.0144L18.898 6.85834C18.4775 6.79424 18.0772 6.63457 17.7277 6.39218L11.286 1.92315C10.657 1.48679 10.9658 0.5 11.7313 0.5H45.3125Z" fill="#00143F"/>
</svg>
