<?xml version="1.0" encoding="utf-8"?><svg viewBox="0 0 502.66 502.66" xmlns="http://www.w3.org/2000/svg" xmlns:xlink="http://www.w3.org/1999/xlink"><style>:root>svg{display:none}:root>svg:target{display:block}</style><svg viewBox="0 0 22 13" id="arr-down" xmlns="http://www.w3.org/2000/svg"><path d="m2 2 9 9 9-9"/></svg><svg viewBox="0 0 502.664 502.664" xml:space="preserve" id="icon" xmlns="http://www.w3.org/2000/svg"><path d="M153.821 358.226 0 274.337v-46.463l153.821-83.414v54.574L46.636 250.523l107.185 53.431v54.272zm26.273 29.358L282.103 115.08h32.227L212.084 387.584h-31.99zm168.749-29.358v-54.272l107.164-52.999-107.164-52.59v-53.927l153.821 83.522v46.183l-153.821 84.083z"/></svg><svg viewBox="0 0 30 30" id="lk" xmlns="http://www.w3.org/2000/svg"><circle cx="15" cy="9.375" r="9.375"/><path d="M29.75 20.863c.165.377.25.783.25 1.195v2.317A5.625 5.625 0 0 1 24.375 30H5.625A5.625 5.625 0 0 1 0 24.375v-2.318c0-.41.085-.817.25-1.194 1.04-2.376 4.828-2.516 6.907-.964a13.065 13.065 0 0 0 7.843 2.6c2.94 0 5.655-.967 7.843-2.6 2.079-1.552 5.866-1.413 6.907.964Z"/></svg><svg viewBox="0 0 50 26" id="logo" xmlns="http://www.w3.org/2000/svg"><path d="M15.952 8.95c.74.513 1.587.85 2.477.986l14.146 2.157a6.174 6.174 0 0 1 5.02 4.455l2.204 7.962a.781.781 0 0 1-.753.99h-4.851a.59.59 0 0 1-.58-.601 8.79 8.79 0 0 0-17.58 0 .59.59 0 0 1-.58.601H4.688A4.688 4.688 0 0 1 0 20.812V5.188c0-2.2 1.516-4.045 3.56-4.55.2-.048.41 0 .579.118L15.952 8.95Z"/><path d="M24.825 19.223a5.677 5.677 0 0 1 5.677 5.676c0 .342-.29.601-.633.601H19.784c-.342 0-.635-.259-.635-.601a5.677 5.677 0 0 1 5.676-5.677ZM45.313.5A4.688 4.688 0 0 1 50 5.188v15.625a4.688 4.688 0 0 1-4.688 4.687h-1.635a.491.491 0 0 1-.472-.36l-2.61-9.422a9.288 9.288 0 0 0-7.55-6.704L18.897 6.858a2.792 2.792 0 0 1-1.17-.466l-6.442-4.469C10.656 1.487 10.965.5 11.73.5h33.582Z"/></svg><svg viewBox="0 0 36 42" id="play" xmlns="http://www.w3.org/2000/svg"><path d="M35.291 21.127.164 41.407V.848l35.127 20.28Z"/></svg></svg>