<svg width="45" height="44" viewBox="0 0 45 44" fill="none" xmlns="http://www.w3.org/2000/svg">
<rect x="0.333008" width="44" height="44" rx="5" fill="#000512"/>
<path fill-rule="evenodd" clip-rule="evenodd" d="M12.7079 21.003C18.0766 18.6639 21.6566 17.1218 23.4478 16.3768C28.5622 14.2495 29.6249 13.88 30.3176 13.8678C30.4699 13.8651 30.8106 13.9029 31.0312 14.0819C31.2175 14.2331 31.2688 14.4373 31.2933 14.5807C31.3179 14.724 31.3484 15.0505 31.3241 15.3056C31.047 18.2177 29.8477 25.2845 29.2376 28.5461C28.9795 29.9261 28.4712 30.3889 27.9791 30.4342C26.9096 30.5326 26.0975 29.7274 25.0617 29.0484C23.4408 27.9859 22.5251 27.3245 20.9518 26.2877C19.1335 25.0894 20.3122 24.4309 21.3485 23.3546C21.6196 23.073 26.3317 18.7869 26.4229 18.3981C26.4343 18.3495 26.4449 18.1682 26.3372 18.0725C26.2296 17.9768 26.0706 18.0095 25.9559 18.0356C25.7934 18.0725 23.204 19.7839 18.1879 23.17C17.4529 23.6747 16.7872 23.9206 16.1907 23.9077C15.5332 23.8935 14.2683 23.5359 13.328 23.2303C12.1747 22.8554 11.258 22.6572 11.3379 22.0205C11.3794 21.6888 11.8361 21.3497 12.7079 21.003Z" fill="white"/>
</svg>
