<svg width="45" height="44" viewBox="0 0 45 44" fill="none" xmlns="http://www.w3.org/2000/svg">
<rect x="0.666504" width="44" height="44" rx="5" fill="#000512"/>
<path d="M12.0903 32.5504L13.5735 27.1321C12.6583 25.546 12.1774 23.7481 12.1782 21.9045C12.1809 16.1406 16.8713 11.4502 22.6343 11.4502C25.4309 11.4511 28.0562 12.5404 30.0308 14.5168C32.0045 16.4931 33.0912 19.1201 33.0903 21.9141C33.0877 27.6789 28.3973 32.3693 22.6343 32.3693C20.8847 32.3684 19.1607 31.9297 17.6335 31.0963L12.0903 32.5504ZM17.8903 29.2034C19.3638 30.0782 20.7704 30.6022 22.6308 30.603C27.4205 30.603 31.3223 26.7048 31.3249 21.9124C31.3267 17.1103 27.4434 13.2173 22.6378 13.2156C17.8445 13.2156 13.9454 17.1138 13.9436 21.9054C13.9428 23.8615 14.516 25.3262 15.4787 26.8586L14.6004 30.0659L17.8903 29.2034ZM27.9014 24.3996C27.8364 24.2906 27.6623 24.2255 27.4003 24.0945C27.1392 23.9635 25.8547 23.3314 25.6147 23.2443C25.3756 23.1573 25.2015 23.1133 25.0265 23.3753C24.8525 23.6364 24.3513 24.2255 24.1992 24.3996C24.0471 24.5737 23.8941 24.5956 23.633 24.4646C23.3719 24.3336 22.5297 24.0585 21.5318 23.1678C20.7555 22.4751 20.2306 21.6196 20.0785 21.3576C19.9264 21.0965 20.0627 20.955 20.1928 20.8248C20.3106 20.7079 20.4539 20.5198 20.5849 20.3668C20.7177 20.2156 20.7608 20.1066 20.8487 19.9316C20.9357 19.7575 20.8926 19.6046 20.8267 19.4736C20.7608 19.3434 20.2385 18.0572 20.0214 17.5341C19.8086 17.025 19.5932 17.0936 19.4332 17.0857L18.9321 17.0769C18.758 17.0769 18.4749 17.142 18.2358 17.404C17.9966 17.666 17.3214 18.2972 17.3214 19.5835C17.3214 20.8697 18.2578 22.112 18.3879 22.286C18.5189 22.4601 20.2297 25.0994 22.8506 26.2309C23.4739 26.4999 23.961 26.6608 24.3399 26.7813C24.9659 26.98 25.5356 26.9518 25.9857 26.885C26.4877 26.8103 27.5313 26.2529 27.7493 25.6427C27.9674 25.0317 27.9674 24.5086 27.9014 24.3996Z" fill="white"/>
</svg>
